# xmcd
#
# Track frame offsets:
#	150
#	17377
#	33195
#	44387
#
# Disc length: 818 seconds
#
# Revision: 1
# Processed by: cddbd v1.5PL3 Copyright (c) Steve Scherf et al.
# Submitted via: CDex 1.50Beta5
#
DISCID=21033004
DTITLE=New Cinema 蜥蜴 - Breathe on me
DYEAR=2001
DGENRE=Rock
TTITLE0=Breathe on me
TTITLE1=FRIENDS
TTITLE2=Cloudy Sky
TTITLE3=Breathe on me-instrumental-
EXTD=
EXTT0=
EXTT1=
EXTT2=
EXTT3=
PLAYORDER=
